<?xml version="1.0" standalone="no"?>
<!DOCTYPE svg PUBLIC "-//W3C//DTD SVG 20010904//EN"
 "http://www.w3.org/TR/2001/REC-SVG-20010904/DTD/svg10.dtd">
<svg version="1.0" xmlns="http://www.w3.org/2000/svg"
 width="2550.000000pt" height="3300.000000pt" viewBox="0 0 2550.000000 3300.000000"
 preserveAspectRatio="xMidYMid meet">
<g transform="translate(0.000000,3300.000000) scale(0.100000,-0.100000)"
fill="#000000" stroke="none">
<path d="M12610 29670 c0 -35 -4 -36 -72 -10 -29 11 -56 20 -60 20 -5 0 -8
-18 -8 -39 0 -64 -6 -71 -64 -71 -74 0 -401 -27 -536 -45 -156 -20 -250 -39
-408 -81 -121 -32 -138 -34 -185 -25 -91 19 -175 53 -227 93 -27 21 -50 34
-50 29 0 -12 97 -112 135 -139 l30 -21 -36 -1 c-54 0 -150 20 -193 41 -49 23
-46 24 -46 -6 0 -30 -1 -30 -66 -6 l-52 20 -5 -41 c-3 -22 -9 -44 -14 -48 -4
-4 -64 -10 -133 -14 -197 -9 -301 -30 -558 -111 -62 -19 -144 -38 -182 -41
-45 -5 -70 -11 -70 -19 0 -9 -21 -11 -76 -7 -83 5 -85 3 -42 -45 l20 -21 -126
-60 c-69 -33 -167 -88 -218 -123 -92 -62 -94 -62 -175 -67 -75 -4 -86 -2 -130
22 l-48 27 25 -27 c14 -14 43 -35 65 -45 l40 -18 -50 6 c-27 3 -69 12 -92 18
-24 7 -43 11 -43 8 0 -10 92 -44 151 -56 l61 -12 -65 -58 c-108 -94 -283 -222
-351 -255 -127 -62 -241 -62 -312 1 -19 16 -34 25 -34 19 0 -16 71 -74 116
-94 23 -10 63 -21 88 -24 25 -4 43 -11 40 -16 -11 -17 -143 -76 -186 -83 l-41
-7 24 -19 24 -18 -55 5 c-30 2 -66 7 -80 10 -20 4 -16 -1 18 -26 27 -19 40
-35 36 -43 -17 -29 -262 -353 -275 -363 -18 -15 -140 -34 -216 -34 -32 0 -83
6 -113 14 -30 8 -56 13 -58 11 -9 -9 114 -57 174 -68 55 -11 64 -15 44 -20
-39 -10 -163 -8 -222 4 -29 6 -80 24 -113 40 l-60 29 35 -30 c54 -46 153 -90
249 -110 l86 -17 -49 -23 c-32 -15 -68 -22 -107 -22 -60 0 -68 -5 -46 -27 18
-18 -172 95 -213 127 -28 22 -22 12 28 -50 76 -94 151 -160 217 -194 l50 -25
-100 5 c-55 2 -134 14 -175 25 -41 11 -86 23 -100 27 -22 6 -21 3 11 -22 47
-39 104 -104 90 -104 -22 0 -86 31 -110 53 l-24 22 18 -28 c22 -34 83 -77 150
-106 28 -12 56 -30 62 -40 11 -18 10 -18 -45 -4 -31 8 -65 19 -75 25 -16 8
-17 7 -9 -9 13 -23 60 -71 90 -90 12 -9 22 -19 22 -22 0 -11 -227 -2 -284 11
-43 9 -50 15 -67 52 l-20 41 7 -40 c16 -97 70 -199 149 -284 l45 -48 -118 1
c-104 1 -122 -2 -167 -24 -49 -23 -49 -24 -20 -27 99 -11 168 -28 229 -56 l69
-32 -109 3 c-60 2 -136 -1 -169 -6 l-60 -8 96 -13 c54 -7 110 -16 125 -20 27
-8 25 -9 -21 -15 -88 -12 -173 -34 -228 -60 -53 -25 -171 -105 -165 -111 2 -2
32 3 68 10 36 8 76 14 90 14 21 0 18 -3 -15 -17 -55 -24 -88 -43 -82 -49 3 -2
38 -11 77 -19 40 -9 93 -24 119 -34 38 -15 43 -19 26 -25 -101 -34 -142 -69
-219 -189 l-53 -81 -119 -44 c-325 -119 -457 -216 -549 -400 -27 -54 -34 -84
-8 -36 54 99 137 184 239 241 61 34 269 107 287 101 15 -5 -151 -112 -266
-172 l-98 -52 65 -7 c96 -10 106 -15 65 -37 l-34 -18 54 -1 55 0 -45 -29 c-62
-40 -179 -172 -179 -202 0 -4 17 -1 38 8 46 19 203 65 208 61 1 -2 -22 -17
-53 -33 -69 -36 -161 -119 -202 -184 -39 -61 -40 -78 -2 -25 78 106 257 195
401 199 36 2 72 6 81 9 9 4 -50 -60 -130 -142 -136 -138 -212 -204 -286 -246
-29 -17 -28 -17 75 -13 l105 5 -79 -72 c-44 -39 -107 -97 -140 -129 l-61 -57
109 57 c71 36 107 51 103 40 -13 -34 -27 -98 -51 -227 -41 -218 -78 -304 -163
-380 l-48 -43 65 7 65 7 -40 -41 c-38 -39 -39 -41 -12 -31 33 13 33 13 -30
-72 -57 -79 -113 -182 -163 -302 l-41 -100 92 90 c51 50 84 77 74 61 -9 -16
-27 -45 -38 -65 l-21 -36 28 25 c19 16 8 -5 -31 -60 -76 -108 -116 -180 -148
-264 -33 -87 -31 -93 5 -27 28 50 106 161 114 161 2 0 -8 -44 -21 -97 -13 -54
-44 -224 -68 -378 -75 -470 -129 -646 -259 -839 -25 -38 -46 -70 -46 -72 0 -2
25 6 55 16 30 10 55 18 55 16 0 -22 -58 -132 -92 -175 -24 -31 -55 -72 -68
-91 l-24 -35 34 27 c60 48 158 118 164 118 4 0 -8 -24 -25 -52 -69 -119 -120
-260 -98 -274 5 -3 9 1 9 8 0 7 7 22 16 33 13 18 14 15 8 -34 -4 -33 -2 -56 4
-60 7 -4 -1 -32 -20 -76 -55 -128 -54 -125 -12 -85 l36 35 -7 -85 c-9 -114
-23 -175 -52 -233 -13 -27 -22 -51 -20 -53 2 -2 23 3 47 11 23 8 43 15 44 15
1 0 3 -21 5 -47 1 -27 6 -77 11 -113 18 -120 16 -125 -125 -502 -265 -703
-278 -748 -310 -1096 -28 -301 -56 -490 -84 -559 -32 -81 -244 -541 -309 -670
-138 -274 -269 -584 -326 -773 -107 -355 -287 -1390 -351 -2025 -44 -434 -59
-900 -36 -1135 5 -58 13 -146 16 -197 l7 -91 -59 -12 c-897 -174 -1631 -395
-2548 -768 -256 -104 -545 -231 -528 -232 34 -1 638 172 1043 298 140 44 314
97 385 117 72 20 218 63 325 95 293 87 1408 386 1414 379 1 -2 20 -96 41 -209
20 -113 60 -299 87 -415 26 -115 69 -309 93 -430 24 -121 49 -235 54 -253 9
-31 8 -33 -25 -47 -127 -53 -320 -95 -436 -95 -148 0 -462 -52 -1114 -186
-609 -124 -810 -162 -952 -179 -265 -32 -474 -80 -632 -144 -92 -37 -84 -39
24 -7 176 53 326 78 581 96 204 15 511 65 1135 185 622 120 793 148 970 160
124 8 222 28 345 71 55 19 107 37 116 40 12 4 18 -7 28 -53 44 -199 147 -476
286 -773 214 -456 379 -859 488 -1195 108 -333 134 -489 152 -920 7 -167 11
-219 36 -435 10 -91 19 -211 19 -268 0 -332 52 -716 132 -970 41 -130 42 -134
29 -195 -101 -507 -378 -1148 -792 -1834 -72 -119 -202 -318 -266 -406 -63
-86 -27 -48 58 61 325 419 652 1012 842 1522 77 206 129 405 175 665 l8 40 33
-63 c89 -166 395 -455 688 -651 128 -85 338 -203 444 -247 l66 -28 16 -97 c17
-100 56 -245 81 -301 l14 -33 1 50 c0 28 -6 115 -14 194 -8 80 -14 146 -12
147 1 2 63 -17 137 -40 175 -57 368 -95 549 -108 l35 -3 81 -340 c245 -1019
445 -1670 617 -2006 89 -176 299 -391 635 -651 160 -124 433 -316 433 -305 0
2 -57 46 -127 98 -283 208 -585 479 -741 664 -119 142 -182 276 -289 610 -113
356 -275 1039 -393 1655 -22 118 -43 227 -46 242 -5 26 -4 26 58 30 61 5 248
-29 458 -82 41 -10 143 -29 225 -41 119 -17 162 -28 210 -51 129 -65 239 -154
476 -384 190 -184 308 -287 406 -352 65 -44 202 -116 208 -110 2 2 -37 35 -88
73 -51 39 -207 185 -347 325 -196 196 -286 279 -390 356 -256 191 -271 198
-425 214 -133 13 -243 30 -454 71 -3 1 44 7 106 15 524 63 1281 225 1973 423
228 65 305 89 288 90 -3 1 -89 -15 -190 -34 -1323 -249 -2070 -355 -2508 -355
-381 0 -719 80 -1090 258 -200 96 -479 276 -644 415 -104 87 -283 265 -317
315 -105 149 -196 435 -253 792 -36 225 -37 257 -41 905 -4 632 -7 673 -60
906 -93 403 -302 943 -581 1500 -174 349 -286 670 -434 1244 -51 197 -61 252
-110 595 -109 766 -109 1069 0 2025 54 465 188 1368 246 1660 48 240 148 540
328 985 64 157 111 254 174 360 101 170 152 266 152 285 0 31 37 36 163 24
l123 -13 65 32 c35 17 89 46 120 63 42 23 71 31 113 32 31 1 56 3 56 5 0 1 -8
14 -17 29 l-17 26 33 -18 c18 -9 43 -18 55 -19 12 -1 50 -22 85 -45 150 -102
313 -179 650 -306 371 -140 366 -138 346 -145 -14 -5 -8 -15 36 -54 144 -130
287 -200 564 -276 247 -68 389 -132 487 -220 65 -58 91 -105 114 -210 20 -90
24 -335 6 -394 -19 -65 -6 -52 18 16 31 91 39 274 16 388 -10 46 -22 92 -27
102 -7 13 -5 27 7 50 32 61 27 278 -7 338 -10 18 -11 -1 -11 -205 l0 -150 -8
120 c-5 66 -18 155 -29 197 -19 75 -97 264 -111 273 -4 3 -4 -15 1 -38 4 -23
8 -45 9 -49 0 -4 -37 30 -82 76 -46 45 -144 126 -218 178 -75 53 -187 142
-250 198 -122 109 -191 159 -252 185 -41 17 -47 12 -21 -17 9 -10 14 -20 12
-22 -2 -3 -78 38 -169 90 -179 103 -284 158 -400 211 -64 29 -69 33 -35 28 68
-11 155 -45 300 -117 113 -55 133 -63 105 -38 -89 77 -241 159 -331 179 -24 5
-100 15 -169 21 -69 6 -127 14 -130 17 -3 3 51 3 120 0 119 -6 123 -5 90 10
-66 29 -175 46 -335 52 l-160 6 90 12 c50 7 114 16 143 19 29 4 51 8 49 10 -1
2 -39 6 -82 9 -69 5 -235 -8 -375 -30 -19 -3 22 9 92 27 69 18 130 37 134 41
12 12 -11 24 -101 53 -68 22 -105 27 -245 33 -134 5 -157 8 -120 15 l45 9 -40
9 c-41 10 -84 7 -237 -14 -82 -11 -111 -28 -47 -28 16 0 29 -4 29 -10 0 -5
-11 -10 -24 -10 -14 0 -27 -4 -30 -9 -10 -15 -56 -20 -56 -5 0 33 73 235 207
579 265 675 355 936 444 1290 73 291 99 386 196 715 307 1047 299 1025 449
1316 193 374 354 603 562 797 l52 48 37 -20 c21 -10 81 -44 132 -75 52 -31 99
-56 105 -56 28 0 -97 101 -185 150 -38 21 -47 29 -34 34 50 19 204 -59 309
-155 42 -39 76 -65 76 -59 0 28 -66 134 -114 181 -49 50 -50 51 -16 34 51 -26
159 -142 204 -218 21 -37 41 -67 43 -67 19 0 -43 191 -97 303 -21 42 -36 77
-33 77 3 0 63 -50 134 -111 72 -61 132 -109 134 -107 4 4 -35 74 -80 142 l-19
28 50 -24 c27 -14 70 -33 96 -43 32 -12 60 -32 84 -62 45 -55 174 -166 232
-200 23 -14 64 -31 90 -39 l47 -15 -50 45 c-27 25 -53 45 -56 46 -11 0 -121
130 -112 130 5 0 72 -39 149 -86 188 -117 263 -149 230 -99 -24 37 -20 37 37
-1 59 -39 193 -92 375 -149 l123 -39 52 -65 c29 -36 98 -124 152 -196 325
-425 729 -716 990 -714 l50 0 -46 18 c-49 19 -132 73 -189 121 -46 40 -33 38
35 -6 87 -55 189 -101 324 -145 199 -65 177 -47 -99 80 -45 21 -45 21 -10 17
39 -6 144 -13 300 -21 58 -3 121 -8 140 -11 l35 -4 -37 14 c-55 22 -199 98
-194 103 2 2 28 -1 57 -7 31 -7 188 -13 364 -16 280 -3 305 -3 260 10 -27 8
-79 28 -115 45 -86 39 -59 39 150 0 123 -24 200 -32 306 -35 l141 -3 289 -115
c159 -63 370 -142 469 -177 99 -34 333 -120 520 -189 187 -70 379 -140 427
-156 48 -15 86 -29 84 -31 -9 -9 -406 57 -489 82 -28 8 -52 13 -54 12 -2 -2
33 -21 76 -41 94 -44 239 -87 406 -121 66 -14 172 -37 235 -51 63 -15 130 -27
148 -27 20 0 28 -3 20 -9 -9 -5 -4 -8 14 -8 15 0 30 5 33 10 3 6 27 10 53 10
26 1 76 6 112 13 36 7 90 10 120 7 l55 -5 -105 -18 c-58 -10 -127 -19 -155
-20 -42 -2 -16 -10 168 -52 119 -27 217 -53 217 -56 0 -7 -78 -3 -320 17 -96
8 -186 14 -200 13 -24 0 -25 0 -3 -9 44 -18 270 -69 373 -85 58 -9 186 -19
285 -22 99 -3 187 -9 195 -14 11 -6 7 -8 -15 -9 -16 0 -64 -5 -105 -11 -65
-10 -94 -8 -215 11 -152 24 -518 40 -500 22 12 -11 132 -43 280 -74 95 -19
142 -22 355 -23 299 -2 330 -3 330 -12 0 -5 -53 -9 -118 -10 -64 0 -128 -6
-142 -11 -23 -10 -21 -11 20 -11 25 -1 111 -13 190 -27 196 -34 244 -42 319
-48 35 -3 66 -8 70 -12 3 -4 -61 -3 -144 2 -183 11 -381 9 -414 -3 -20 -8 -9
-11 55 -16 43 -3 140 -18 214 -32 181 -35 380 -43 532 -22 62 9 208 18 323 21
184 5 280 12 390 31 26 5 28 4 15 -9 -40 -39 -163 -87 -256 -101 -193 -29
-320 -86 -467 -209 -48 -40 -134 -138 -107 -121 8 5 44 28 80 51 159 102 309
162 424 171 l81 5 -79 -52 c-101 -68 -182 -149 -212 -214 -25 -53 -31 -120
-14 -146 7 -11 10 -6 10 21 0 69 75 155 215 243 59 38 239 136 250 136 3 0
-25 -30 -63 -67 -69 -68 -167 -192 -158 -201 3 -2 53 34 113 81 167 130 308
217 291 179 -1 -4 -45 -69 -96 -144 -104 -154 -204 -267 -287 -323 -30 -21
-55 -40 -55 -42 0 -9 146 54 228 98 51 28 97 49 102 47 11 -4 -214 -250 -270
-295 l-45 -36 56 6 c31 3 84 16 118 30 l61 25 -54 -59 c-30 -32 -75 -85 -101
-118 -78 -102 -225 -315 -220 -319 5 -5 156 68 253 122 35 20 64 36 65 36 1 0
-34 -37 -78 -83 -117 -121 -207 -292 -274 -517 -34 -115 -76 -314 -84 -400
l-6 -55 18 65 c21 75 50 150 85 218 46 89 56 90 26 2 -51 -156 -81 -407 -77
-657 1 -73 0 -133 -4 -133 -9 0 -39 99 -48 157 l-7 48 -15 -60 c-22 -95 -17
-326 11 -454 46 -219 152 -468 265 -625 29 -41 89 -116 135 -167 258 -293 472
-651 573 -958 48 -147 55 -149 64 -21 l6 74 14 -39 c8 -22 25 -78 38 -125 21
-77 24 -81 25 -45 4 71 38 -125 50 -290 13 -165 7 -356 -16 -474 -7 -41 -12
-76 -10 -78 5 -5 65 150 75 194 5 22 9 29 10 16 2 -38 -27 -170 -65 -295 -44
-148 -93 -341 -88 -347 2 -3 17 8 33 23 l29 27 -35 -138 c-58 -236 -84 -409
-90 -605 -3 -98 -3 -178 0 -178 3 0 15 29 27 65 12 36 24 65 26 65 6 0 -2
-150 -17 -344 -15 -188 -43 -315 -96 -420 l-25 -49 51 37 c65 48 66 31 4 -102
-9 -18 -14 -35 -11 -37 3 -3 29 2 59 11 153 46 276 150 353 299 l25 50 2 -110
c0 -60 6 -128 13 -150 l13 -40 12 45 c31 117 92 267 131 320 19 26 0 -70 -26
-127 -12 -29 -21 -53 -18 -53 11 0 438 656 473 726 21 44 67 156 101 249 35
94 74 193 89 220 l26 50 3 -37 c2 -20 -1 -61 -7 -90 -5 -29 -8 -54 -6 -56 1
-2 13 14 26 35 37 61 145 168 274 273 172 139 235 214 346 408 62 110 68 107
78 -32 l6 -91 24 50 c14 27 37 92 52 145 26 91 27 93 29 50 1 -25 2 -53 1 -62
-4 -37 15 -15 44 49 38 85 114 163 269 273 132 94 231 194 266 268 l23 49 56
-37 c85 -56 81 -55 74 -15 -5 30 -3 34 11 29 13 -5 16 0 16 27 l0 32 23 -21
c33 -31 92 -28 207 9 52 17 118 31 147 32 32 1 49 5 46 12 -4 5 -19 29 -35 52
-16 24 -24 44 -18 48 5 3 35 14 66 24 l57 19 23 -26 c37 -44 101 -171 133
-267 111 -332 82 -774 -89 -1340 -22 -73 -46 -183 -55 -250 -9 -66 -27 -178
-41 -249 -28 -141 -53 -201 -196 -456 -42 -75 -113 -224 -158 -330 -170 -402
-177 -412 -540 -785 -305 -312 -384 -429 -476 -695 -64 -190 -82 -219 -206
-346 -165 -169 -311 -277 -437 -325 -119 -45 -178 -50 -508 -50 -172 0 -330 3
-350 6 -21 4 -61 11 -89 16 l-52 10 84 207 c165 404 332 874 321 905 -6 20
-141 -203 -227 -378 -120 -242 -199 -468 -240 -685 -25 -131 -343 -698 -600
-1070 -175 -254 -429 -553 -854 -1008 -212 -227 -341 -348 -558 -524 -224
-181 -207 -174 102 41 381 265 870 750 1199 1189 255 341 503 762 676 1149
l52 118 44 3 c43 2 45 1 76 -49 41 -68 46 -119 34 -384 -8 -203 -11 -218 -65
-455 -65 -283 -108 -530 -136 -785 -86 -767 -183 -1265 -342 -1755 -152 -469
-270 -718 -598 -1270 -352 -593 -602 -986 -848 -1340 -116 -167 -130 -186
-314 -430 -507 -675 -1045 -1196 -1546 -1497 -293 -177 -1004 -483 -1477 -636
-720 -234 -1276 -293 -1690 -178 -88 25 -97 20 -13 -7 191 -63 335 -83 583
-84 306 -1 579 38 971 137 519 132 1325 441 1681 645 709 408 1424 1164 2156
2282 305 465 755 1226 907 1533 285 577 466 1232 560 2030 11 94 33 334 50
535 33 396 42 470 96 779 48 279 69 378 92 431 30 73 50 157 66 283 16 124 36
174 71 183 11 2 85 -7 165 -20 107 -18 148 -29 158 -43 31 -40 64 -127 117
-313 31 -107 60 -199 66 -205 5 -5 9 30 9 95 0 128 -27 267 -69 357 -17 36
-31 69 -31 73 0 4 15 7 33 6 101 -8 267 29 371 81 171 87 427 335 503 488 23
45 49 144 59 220 7 48 38 125 51 125 4 0 63 -37 132 -82 470 -305 563 -372
711 -513 191 -183 307 -257 694 -445 259 -126 318 -159 409 -227 31 -25 57
-41 57 -37 0 4 -18 30 -41 56 -23 27 -39 51 -37 54 5 4 176 -71 324 -142 132
-64 252 -139 386 -242 380 -291 454 -344 573 -417 243 -148 459 -287 675 -435
118 -82 328 -217 465 -302 488 -301 649 -416 849 -608 95 -91 113 -105 85 -66
-161 229 -400 447 -774 708 -269 188 -393 276 -573 410 -177 131 -245 177
-539 364 -253 160 -322 209 -508 351 -353 270 -437 315 -999 528 -336 128
-367 142 -530 249 -191 124 -244 166 -379 294 -198 186 -352 291 -647 438
-102 50 -202 99 -222 107 -21 9 -38 19 -38 22 0 3 13 31 29 63 33 65 126 159
406 409 329 294 403 403 543 798 64 179 82 223 182 450 115 262 178 455 220
670 7 33 32 115 56 182 171 476 204 931 92 1283 -32 100 -78 198 -123 265 -26
37 -27 44 -21 109 7 73 46 203 75 250 l19 28 17 -51 c9 -29 19 -51 20 -49 2 2
5 36 6 76 1 39 5 72 8 72 3 0 20 -21 36 -48 l30 -47 11 185 c17 279 42 375
124 489 86 118 128 220 131 316 l1 40 14 -30 c13 -27 13 -22 8 60 l-6 90 27
-40 c35 -52 76 -95 85 -90 4 2 10 44 14 91 10 140 45 267 99 364 55 99 86 170
93 215 l7 50 13 -30 13 -30 1 30 c3 78 10 179 14 182 2 2 25 -25 52 -60 l50
-64 0 71 c0 54 9 99 38 191 40 123 50 216 33 280 -8 29 -8 29 12 11 20 -18 20
-18 11 15 -4 19 -11 47 -14 62 l-7 28 53 -40 c29 -22 53 -39 54 -38 2 1 -5 31
-14 67 -19 77 -22 396 -8 713 l9 198 29 -28 30 -28 -21 54 c-11 30 -19 56 -18
58 2 1 20 -11 40 -28 l37 -30 0 74 c0 40 -7 116 -16 168 -15 86 -33 153 -123
462 -18 60 -31 113 -29 118 2 6 25 -26 52 -70 26 -44 59 -95 72 -112 l24 -33
2 35 c0 19 1 41 2 49 1 46 -17 144 -39 209 -14 41 -23 77 -20 80 9 8 77 -20
123 -50 24 -16 45 -29 46 -29 2 0 -1 18 -6 40 -6 23 -7 44 -3 48 10 10 81 -72
116 -133 57 -100 28 25 -47 201 -25 58 -44 107 -42 109 2 1 26 8 53 14 64 16
132 55 140 82 4 11 5 21 3 22 -1 1 -25 13 -51 26 -51 26 -107 82 -107 107 0 9
5 13 13 9 6 -4 -14 18 -45 49 l-58 55 45 3 44 3 -39 77 c-22 43 -40 79 -40 81
0 2 25 9 55 16 l55 12 -47 32 c-42 28 -56 48 -110 152 -57 109 -71 128 -160
213 l-98 94 62 -7 62 -6 -42 63 c-24 36 -57 106 -76 163 -44 129 -84 211 -124
254 -37 38 -99 70 -139 71 -15 0 -29 3 -31 8 -3 4 6 43 18 87 17 57 20 84 13
92 -8 10 2 13 48 13 l59 0 -51 29 c-28 16 -59 41 -68 56 -17 26 -17 27 15 77
18 27 45 75 60 106 15 32 59 97 97 147 l70 90 -39 11 c-57 17 -84 38 -103 78
-9 20 -23 36 -31 36 -27 0 -25 20 5 80 28 55 29 61 13 67 -73 26 -120 47 -143
63 -34 24 -50 83 -50 180 0 92 -12 137 -77 297 -29 73 -56 153 -60 178 l-6 46
-66 -2 -66 -3 -5 65 -5 64 -24 -38 c-13 -21 -25 -36 -27 -34 -3 2 0 44 6 93 5
49 10 117 10 152 0 61 14 101 55 158 15 21 14 22 -22 29 -47 8 -99 47 -126 92
-14 25 -25 33 -39 30 -25 -7 -37 24 -45 118 l-6 73 -71 21 c-39 12 -76 21 -83
21 -12 0 -23 32 -38 110 -16 78 -51 117 -116 128 l-43 7 -29 95 c-16 52 -31
101 -33 109 -3 9 -13 -1 -26 -25 -43 -81 -44 -81 -51 -1 -9 101 -56 278 -115
427 -28 69 -77 193 -110 275 -32 83 -63 159 -67 170 -6 14 -12 -11 -22 -82
-13 -103 -46 -213 -64 -213 -5 0 -32 31 -60 70 -48 65 -69 79 -69 44 0 -36
-25 -7 -76 87 -36 68 -67 105 -94 111 -16 3 -16 3 -19 -104 l-1 -67 -52 55
c-29 31 -98 95 -153 142 -132 115 -156 140 -238 252 -70 96 -144 180 -159 180
-4 0 -8 -20 -8 -45 0 -25 -3 -45 -6 -45 -3 0 -31 23 -62 51 -32 27 -95 76
-142 108 -81 55 -143 93 -426 260 -111 65 -262 172 -356 251 l-37 31 6 -45 c3
-25 3 -46 -1 -46 -3 0 -40 23 -83 51 -102 67 -282 153 -468 224 -309 118 -363
139 -466 186 -58 26 -133 64 -167 83 -33 20 -63 36 -66 36 -3 0 15 -19 40 -42
25 -23 55 -55 66 -71 l21 -29 -54 7 c-104 13 -236 67 -522 211 -297 150 -442
207 -554 219 -85 9 -211 84 -299 177 -66 71 -74 77 -74 55 0 -7 -6 -22 -14
-32 -14 -19 -15 -19 -73 4 -32 13 -107 56 -168 96 -113 74 -153 97 -192 109
-21 7 -23 4 -23 -31 0 -21 -3 -48 -6 -61 l-6 -22 -34 25 c-43 33 -83 50 -207
87 -129 38 -154 51 -289 153 -61 47 -113 83 -116 81 -2 -2 3 -17 11 -33 19
-36 35 -124 28 -146 -5 -13 -26 3 -96 74 -76 77 -148 135 -215 174 -8 5 14
-23 50 -62 36 -39 74 -86 84 -104 l19 -34 -39 35 c-106 96 -106 96 -46 2 18
-30 31 -56 28 -59 -3 -3 -87 13 -188 35 -229 50 -218 49 -428 67 -260 24 -367
50 -447 111 -40 31 -43 30 -43 -6z"/>
<path d="M9441 23754 c-1 -33 29 -124 65 -195 83 -166 257 -363 437 -496 50
-36 157 -100 137 -81 -3 3 -36 31 -75 63 -250 206 -495 513 -551 690 -7 23
-13 31 -13 19z"/>
<path d="M9564 23675 c24 -108 152 -286 302 -419 235 -209 545 -354 700 -329
35 6 33 7 -37 24 -257 65 -767 444 -932 694 -32 48 -38 54 -33 30z"/>
<path d="M13767 22364 c73 -36 188 -63 274 -64 61 0 139 11 139 20 0 4 -38 10
-84 14 -69 5 -242 33 -376 61 -14 3 7 -11 47 -31z"/>
<path d="M14301 22057 c16 -18 154 -60 238 -72 101 -16 304 -19 381 -6 l45 7
-60 7 c-33 4 -127 12 -210 18 -134 9 -285 28 -370 45 -16 4 -28 4 -24 1z"/>
<path d="M14661 21871 c32 -21 170 -52 266 -60 97 -8 147 -7 293 6 107 9 53
19 -153 27 -145 6 -264 16 -382 32 -29 4 -36 3 -24 -5z"/>
<path d="M16050 21823 c-25 -2 -142 -17 -260 -33 -118 -16 -258 -34 -310 -40
-101 -12 -357 -15 -406 -6 -21 5 -15 -1 21 -18 190 -93 590 -65 948 65 85 30
104 41 70 37 -10 -1 -38 -3 -63 -5z"/>
<path d="M7820 18965 c46 -53 75 -75 190 -147 138 -86 173 -111 224 -157 l38
-36 -17 34 c-35 69 -105 124 -320 249 -38 23 -86 51 -105 64 l-35 22 25 -29z"/>
<path d="M6162 18649 c-34 -12 -61 -23 -60 -25 2 -1 37 2 79 8 46 6 99 7 135
2 42 -6 50 -9 29 -11 -104 -11 -226 -38 -266 -58 -43 -21 -53 -23 -120 -14
-40 5 -82 12 -92 15 -32 10 -10 -14 31 -35 51 -26 118 -34 172 -22 49 11 84 0
104 -31 8 -14 4 -24 -19 -49 -17 -17 -43 -40 -60 -52 l-30 -22 28 34 c15 18
27 38 27 44 0 6 -12 -1 -27 -16 -61 -58 -162 -76 -292 -53 -47 8 -111 28 -143
44 l-59 29 28 -29 c41 -43 118 -76 218 -94 151 -27 216 -8 331 97 30 27 61 49
68 49 29 0 70 -22 109 -57 78 -70 195 -105 301 -89 25 4 46 11 46 16 0 5 -24
16 -52 26 -72 23 -71 22 -51 54 15 26 22 29 86 32 38 2 71 -1 74 -5 3 -5 11
-31 18 -57 13 -49 13 -49 -12 -52 -58 -7 420 -181 682 -249 43 -11 105 -33
137 -49 49 -24 57 -26 48 -11 -5 11 -24 31 -41 45 l-31 26 33 75 32 75 99 -52
c122 -64 161 -113 144 -183 -5 -21 -14 -25 -56 -31 -28 -4 -53 -11 -57 -17
-10 -17 44 -54 182 -123 113 -57 141 -76 215 -149 93 -92 152 -135 183 -135
17 0 19 5 13 33 -3 17 -19 51 -34 73 -15 23 -48 73 -73 110 -25 38 -49 75 -53
81 -9 16 149 -51 187 -78 39 -28 45 -17 13 25 -36 48 -74 75 -189 136 -54 29
-147 88 -205 132 -97 72 -188 128 -210 128 -4 0 -52 25 -107 55 -206 114 -489
219 -670 249 -143 24 -234 49 -413 112 -145 52 -165 56 -262 60 -89 4 -115 1
-168 -17z"/>
<path d="M7955 18196 c178 -86 306 -167 386 -245 68 -68 76 -66 28 4 -77 115
-264 233 -449 284 -41 12 -79 21 -85 21 -5 -1 49 -29 120 -64z"/>
<path d="M10227 18040 c-5 -19 -22 -80 -39 -134 -16 -54 -32 -123 -35 -152 -3
-30 -9 -54 -14 -54 -4 0 -28 24 -54 53 -38 43 -109 172 -153 277 l-11 25 0
-30 c-2 -72 52 -204 109 -268 16 -19 50 -45 74 -58 27 -14 50 -35 57 -52 12
-28 36 -47 60 -47 7 0 3 10 -9 23 -31 33 -30 98 2 226 18 70 26 123 24 165 -3
56 -4 58 -11 26z"/>
<path d="M10678 18046 c-70 -25 -128 -60 -129 -79 0 -7 -4 -3 -8 8 -8 18 -12
17 -49 -22 -50 -52 -71 -114 -79 -225 -15 -227 61 -277 530 -348 215 -33 278
-50 399 -111 137 -69 171 -79 327 -94 192 -18 260 -33 525 -114 302 -93 347
-113 576 -256 63 -40 161 -98 218 -130 105 -59 304 -145 334 -145 9 0 19 -4
23 -9 3 -6 -16 -11 -42 -13 -45 -3 -46 -4 -18 -11 196 -52 442 -155 635 -266
119 -68 128 -76 59 -52 -70 24 -130 54 -199 101 -81 55 -153 89 -202 95 l-43
6 39 -15 c22 -8 70 -36 108 -63 38 -26 92 -64 121 -84 96 -67 257 -118 377
-120 68 -1 70 -3 6 -14 -21 -3 -36 -8 -34 -11 3 -2 70 -6 149 -9 161 -6 238
-12 266 -21 10 -3 2 5 -17 17 -19 13 -44 32 -55 41 -11 9 -29 24 -40 32 -18
13 -14 14 35 1 64 -16 148 -24 243 -25 47 0 66 -3 61 -11 -10 -17 -182 -128
-249 -161 -59 -30 -60 -30 -20 -24 22 3 85 28 140 56 152 76 303 197 389 309
66 87 65 91 -5 26 -36 -33 -98 -87 -137 -119 -70 -57 -74 -58 -100 -45 -32 16
-124 107 -242 238 -109 122 -167 158 -332 211 -140 45 -201 72 -257 114 -44
33 -34 33 29 1 28 -14 50 -23 50 -21 0 2 -63 48 -140 101 -77 54 -140 101
-140 105 0 12 -218 191 -330 270 -57 40 -157 106 -222 147 -126 78 -386 218
-393 211 -3 -2 58 -44 135 -94 77 -49 189 -120 249 -159 60 -38 113 -74 118
-79 10 -12 8 -10 -107 59 -139 84 -387 206 -530 260 -68 26 -156 63 -195 82
-38 20 -122 59 -185 87 -63 28 -137 67 -163 85 -27 18 -50 31 -53 28 -7 -7 74
-69 151 -116 39 -24 59 -40 46 -36 -12 4 -51 15 -85 25 -33 10 -118 47 -187
83 -135 69 -262 115 -404 147 -141 31 -164 23 -40 -14 112 -33 308 -107 335
-127 18 -13 32 -16 -225 56 -110 31 -256 73 -325 95 -266 83 -452 118 -564
106 -141 -15 -222 -62 -271 -159 l-27 -52 7 40 c14 80 38 106 150 163 69 34
118 71 95 71 -8 0 -45 -11 -82 -23z"/>
<path d="M6718 17571 c91 -77 334 -153 481 -150 31 1 48 3 37 6 -187 48 -397
110 -465 137 l-86 35 33 -28z"/>
<path d="M8321 17198 c-13 -40 -46 -131 -73 -203 -67 -173 -140 -394 -135
-408 3 -11 100 198 148 322 48 125 105 361 87 361 -2 0 -15 -33 -27 -72z"/>
<path d="M10391 17139 c-110 -55 -221 -137 -290 -215 -41 -46 -101 -139 -101
-157 0 -4 25 20 55 54 81 91 184 178 323 275 110 78 131 94 118 94 -2 0 -50
-23 -105 -51z"/>
<path d="M10828 17154 c-178 -32 -361 -143 -399 -241 -16 -43 -10 -44 26 -5
92 102 348 183 570 181 77 -1 79 -1 48 -15 -20 -9 -80 -15 -165 -17 -105 -3
-147 -8 -198 -26 -92 -32 -156 -76 -186 -127 -15 -25 -55 -72 -90 -106 -36
-34 -75 -78 -87 -97 -12 -20 -32 -44 -44 -54 -24 -19 -31 -51 -13 -62 5 -3 17
7 27 22 56 88 181 205 315 294 57 38 72 44 107 41 l40 -4 -49 -39 c-42 -33
-110 -126 -110 -151 0 -12 76 -9 155 6 39 7 118 13 175 14 123 3 192 11 185
22 -3 5 -28 16 -56 25 l-51 17 36 37 c20 20 49 44 65 54 l30 17 7 -47 c3 -27
13 -64 21 -83 8 -19 16 -42 17 -50 3 -23 113 -93 211 -133 95 -40 197 -68 315
-87 41 -7 129 -26 195 -42 92 -23 151 -32 253 -35 72 -3 132 -9 132 -13 0 -4
11 -12 25 -18 22 -10 24 -15 15 -31 -13 -25 -13 -67 0 -92 20 -37 32 -21 28
41 -1 33 -1 60 1 60 2 0 83 -42 180 -94 252 -135 336 -167 544 -205 48 -8 68
-19 120 -64 34 -29 94 -71 132 -91 125 -68 228 -142 310 -223 154 -153 324
-243 581 -308 78 -19 101 -19 49 2 -22 8 -92 36 -155 60 -122 48 -270 128
-351 190 -50 38 -59 54 -17 32 39 -21 100 -28 145 -17 74 18 70 33 -10 33 -62
1 -84 6 -152 38 l-80 37 60 -5 c33 -3 80 -2 105 3 l45 9 -40 7 c-239 46 -253
52 -369 164 -172 165 -397 325 -583 413 -68 32 -190 96 -272 143 -159 91 -449
236 -516 256 -22 7 -125 53 -228 101 -245 115 -388 171 -550 216 -248 67 -341
76 -499 47z m1476 -548 c63 -54 95 -108 78 -129 -11 -13 -19 -13 -61 4 -27 10
-72 21 -100 25 -28 4 -51 8 -51 9 0 2 16 26 35 55 19 29 35 58 35 66 0 22 9
17 64 -30z"/>
<path d="M15805 17038 c-85 -118 -195 -247 -315 -372 -58 -60 -94 -103 -80
-96 89 46 271 226 354 349 47 71 110 190 104 197 -2 2 -30 -33 -63 -78z"/>
<path d="M10263 16831 c-32 -27 -77 -68 -99 -92 -55 -58 -175 -212 -169 -217
13 -13 153 128 283 286 75 90 71 96 -15 23z"/>
<path d="M19851 16604 c-30 -8 -57 -16 -59 -18 -2 -2 33 -4 78 -5 97 -1 148
-23 185 -79 77 -117 52 -384 -65 -681 -66 -167 -78 -220 -90 -381 -24 -313
-29 -344 -85 -542 -31 -106 -60 -224 -66 -263 -6 -38 -28 -110 -49 -160 -21
-49 -63 -153 -95 -229 -147 -361 -235 -479 -465 -628 -58 -37 -143 -92 -190
-122 -88 -56 -174 -125 -167 -133 3 -2 29 10 58 28 30 17 117 62 195 99 286
137 403 234 503 421 59 110 98 215 151 409 70 254 95 329 162 480 109 243 130
320 153 547 22 213 30 250 90 414 71 193 95 313 95 466 0 65 -5 137 -10 161
-26 111 -91 193 -174 217 -60 18 -85 18 -155 -1z"/>
<path d="M19615 16492 c-201 -80 -360 -227 -617 -571 -221 -295 -264 -371
-372 -656 -83 -216 -113 -289 -163 -390 l-45 -90 37 35 c46 44 148 196 213
320 55 103 94 140 147 140 17 0 41 -7 53 -16 30 -20 28 -3 -3 26 -18 17 -35
22 -68 22 l-44 -1 16 34 c11 24 23 34 38 35 24 0 144 -37 206 -64 20 -9 37
-14 37 -11 0 14 -130 87 -181 103 l-58 18 44 78 c24 42 89 139 143 214 54 75
136 191 182 257 164 235 294 381 425 477 109 80 109 79 10 40z"/>
<path d="M19787 16330 c-21 -442 -9 -675 48 -890 l14 -55 -4 50 c-14 160 -25
386 -31 655 -7 365 -17 452 -27 240z"/>
<path d="M19845 16345 c-13 -52 -13 -521 -1 -560 9 -28 10 -26 17 30 9 78 9
432 0 510 l-7 60 -9 -40z"/>
<path d="M11185 15960 c104 -114 410 -240 655 -270 83 -10 298 -14 289 -6 -3
3 -62 12 -133 21 -173 21 -295 48 -451 100 -161 54 -251 94 -329 147 -61 40
-61 40 -31 8z"/>
<path d="M9268 15788 c-133 -148 -336 -415 -375 -492 -53 -106 372 424 451
562 16 28 -6 7 -76 -70z"/>
<path d="M7747 15728 c-25 -40 -66 -113 -92 -163 -88 -167 -166 -291 -231
-369 -71 -84 -59 -86 30 -5 73 66 151 185 225 340 60 126 122 269 116 269 -2
0 -23 -33 -48 -72z"/>
<path d="M12675 15574 c-86 -21 -167 -34 -210 -35 -57 -1 -66 -3 -50 -12 12
-7 62 -12 125 -11 95 0 117 4 230 41 69 23 134 43 145 46 11 2 -7 5 -40 5 -36
0 -116 -13 -200 -34z"/>
<path d="M19105 15165 c23 -72 36 -158 40 -280 3 -77 9 -169 12 -205 l6 -65
10 40 c5 22 10 108 11 190 1 130 -2 160 -21 221 -13 40 -32 82 -44 95 -18 21
-20 22 -14 4z"/>
<path d="M6891 14960 c-24 -11 -69 -38 -100 -61 -96 -69 -222 -140 -210 -117
10 18 9 19 -13 7 -79 -42 -283 -176 -335 -221 -100 -86 -171 -187 -238 -338
-20 -46 -45 -90 -56 -97 -42 -30 -72 -102 -77 -182 -2 -42 0 -87 6 -101 8 -22
10 -20 16 25 18 125 37 182 72 221 19 22 58 73 86 114 72 105 169 229 212 269
40 39 43 38 21 -7 -34 -68 -27 -74 33 -25 57 47 145 106 235 157 l47 27 -2
-53 c-2 -70 9 -209 23 -278 6 -30 27 -86 47 -125 19 -38 44 -87 54 -108 25
-50 33 -149 19 -230 -40 -229 10 -481 130 -658 113 -168 271 -280 457 -325
105 -26 258 -130 353 -240 23 -27 43 -51 46 -54 7 -7 -15 47 -33 81 -8 17 -34
51 -56 75 -22 24 -38 44 -34 44 18 0 76 -30 76 -39 0 -6 10 -11 23 -11 29 0
120 -44 271 -130 148 -85 233 -118 323 -125 75 -6 69 -1 -45 35 -40 13 -123
52 -185 88 -62 35 -103 60 -92 56 11 -4 70 -26 130 -49 61 -24 126 -46 145
-50 l35 -7 -25 20 c-57 45 -205 136 -273 167 -90 41 -195 69 -344 92 -63 9
-107 20 -98 23 11 4 -17 15 -71 28 -49 12 -134 44 -189 71 -260 125 -430 348
-500 657 -21 94 -22 111 -13 225 15 189 9 228 -51 351 -88 177 -103 339 -42
462 48 96 203 271 290 327 l45 29 -35 0 c-18 0 -54 -9 -78 -20z"/>
<path d="M18458 14584 c10 -310 -136 -692 -301 -789 -23 -13 -80 -38 -127 -55
-102 -38 -159 -69 -205 -116 -65 -65 -136 -234 -185 -438 -11 -44 -18 -81 -16
-83 1 -2 29 47 61 109 166 322 206 367 370 413 115 33 199 80 262 148 l58 64
130 5 c150 6 251 34 341 94 75 50 157 151 214 264 26 53 26 52 -70 -67 -142
-179 -262 -240 -513 -259 l-88 -7 29 59 c87 172 124 431 88 616 -12 62 -40
148 -49 148 -1 0 0 -48 1 -106z"/>
<path d="M4790 14328 c0 -48 28 -172 54 -241 27 -73 68 -138 111 -177 32 -29
32 -28 -17 66 -20 39 -60 138 -88 220 -29 82 -54 151 -56 153 -2 2 -4 -7 -4
-21z"/>
<path d="M10194 13727 c0 -71 -9 -127 -38 -244 -21 -84 -36 -158 -34 -165 5
-13 60 114 84 191 22 70 29 190 14 250 -6 28 -15 53 -19 55 -3 2 -6 -37 -7
-87z"/>
<path d="M10122 13621 c-33 -213 -148 -377 -359 -515 -128 -84 -192 -112 -323
-142 -141 -32 -191 -30 -345 11 -162 44 -262 61 -440 76 -162 14 -348 7 -455
-15 -83 -18 -224 -65 -216 -73 3 -3 40 0 83 6 176 25 607 12 928 -28 44 -6
105 -13 135 -16 30 -4 73 -11 95 -16 63 -14 218 -11 303 7 208 42 451 216 545
391 62 118 90 266 68 367 -5 24 -9 13 -19 -53z"/>
<path d="M18200 13629 c-136 -25 -231 -70 -294 -140 -25 -28 -46 -55 -46 -61
0 -5 -4 -7 -9 -3 -5 3 -12 1 -16 -5 -3 -6 0 -13 9 -16 9 -3 28 9 49 33 53 58
133 101 279 149 72 24 136 48 142 54 12 12 15 13 -114 -11z"/>
<path d="M18731 13484 c-1 -150 -9 -241 -28 -309 l-5 -20 16 20 c21 26 56 139
61 196 5 54 -11 181 -29 240 -13 41 -14 33 -15 -127z"/>
<path d="M10630 13532 c0 -4 6 -16 13 -27 8 -11 35 -60 62 -110 217 -406 454
-802 672 -1123 273 -403 373 -591 503 -952 82 -226 85 -225 28 10 -92 375
-197 590 -548 1115 -92 138 -202 306 -246 375 -93 150 -474 720 -480 720 -2 0
-4 -3 -4 -8z"/>
<path d="M6270 13326 c0 -19 5 -47 12 -63 6 -15 14 -105 17 -200 5 -152 8
-174 26 -193 41 -45 103 -62 146 -40 27 15 25 69 -6 116 l-26 39 42 -43 c40
-42 41 -45 35 -93 -4 -27 -3 -49 1 -49 4 0 40 5 78 11 65 9 75 8 145 -17 69
-25 84 -36 187 -138 97 -96 113 -116 118 -151 l6 -40 -37 64 c-56 95 -144 185
-219 222 -75 37 -108 34 -44 -3 56 -33 159 -138 239 -243 51 -67 60 -85 60
-120 l-1 -40 -25 62 c-24 58 -95 153 -114 153 -5 0 25 -67 66 -150 68 -136 76
-157 85 -237 20 -184 50 -400 60 -438 14 -51 51 -125 99 -195 23 -34 46 -87
60 -135 46 -168 173 -378 306 -506 84 -80 172 -140 273 -187 42 -19 150 -70
241 -114 331 -160 574 -251 742 -278 118 -19 470 -8 627 20 168 30 345 79 495
139 69 28 158 61 198 75 40 13 121 45 179 70 151 64 446 145 739 201 83 17
330 102 381 132 66 39 76 121 28 223 -37 78 -97 137 -191 184 -73 37 -197 70
-244 64 -23 -2 -12 -9 56 -32 98 -33 302 -129 320 -151 21 -25 -31 -19 -125
14 -170 60 -295 79 -970 145 -53 6 -147 26 -465 101 -557 132 -903 208 -1364
301 -520 105 -500 97 -790 292 -243 164 -236 160 -205 131 173 -157 376 -312
469 -359 154 -78 1422 -347 2065 -439 78 -11 197 -36 265 -56 168 -48 341 -83
487 -97 135 -13 129 -9 139 -93 6 -48 3 -61 -26 -117 -43 -84 -73 -115 -145
-149 -73 -36 -105 -32 -157 19 l-38 36 -27 -21 c-16 -11 -39 -40 -53 -64 -67
-115 -208 -97 -360 46 l-71 67 -49 -73 c-102 -156 -209 -249 -283 -249 -74 0
-168 80 -253 214 -16 25 -32 46 -35 46 -4 0 -25 -24 -47 -53 -61 -81 -89 -91
-240 -83 -150 8 -239 29 -302 71 l-46 31 -33 -48 c-38 -58 -83 -88 -133 -88
-41 0 -324 70 -380 94 -50 21 -105 78 -113 116 -6 27 -10 31 -28 25 -49 -16
-98 -16 -154 0 -88 25 -353 158 -388 195 -30 31 -30 32 -29 148 l1 117 -14
-55 c-8 -30 -15 -87 -16 -126 -2 -63 1 -74 25 -106 45 -59 310 -185 428 -204
27 -4 45 -14 52 -28 6 -11 11 -22 10 -23 -1 -2 -2 -11 -2 -22 0 -15 10 -19 51
-24 60 -7 174 -61 246 -116 45 -35 53 -38 64 -24 22 25 91 8 204 -51 57 -30
121 -57 142 -61 21 -3 70 -12 108 -20 39 -9 114 -24 169 -35 107 -21 170 -53
186 -95 l9 -25 63 35 c78 42 162 65 201 54 16 -4 48 -23 70 -42 75 -61 101
-58 223 32 81 59 114 64 182 29 23 -13 42 -26 42 -29 0 -10 -234 -86 -350
-113 -58 -14 -152 -32 -210 -41 -139 -22 -505 -31 -592 -16 -158 27 -368 99
-686 236 -308 133 -449 223 -575 369 -71 83 -165 223 -203 303 -49 105 -87
233 -68 233 3 0 25 -14 50 -31 45 -30 131 -65 140 -56 2 2 -8 12 -23 22 -67
43 -133 99 -133 114 -1 32 -46 120 -72 140 -15 12 -31 36 -37 54 -10 31 -22
604 -13 639 4 15 9 14 44 -8 48 -31 113 -59 165 -73 30 -8 34 -7 20 2 -10 7
-46 30 -80 52 -96 62 -403 367 -351 349 11 -4 66 -29 123 -56 174 -80 279
-157 533 -388 72 -66 78 -69 48 -30 -19 25 -91 101 -160 170 -176 176 -276
240 -516 329 -56 21 -122 54 -149 74 -33 26 -81 47 -149 69 -121 37 -156 54
-224 107 -58 47 -162 170 -162 194 0 19 -76 187 -84 187 -3 0 -6 -15 -6 -34z
m99 -212 c17 -36 40 -80 52 -97 13 -19 3 -12 -24 18 -25 28 -46 44 -47 37 0
-19 38 -90 76 -143 19 -26 34 -51 34 -57 0 -21 -29 -19 -83 5 l-57 26 8 56 c4
31 7 93 7 139 0 45 1 82 2 82 0 0 15 -30 32 -66z m4921 -2111 c-1 -21 -25 -37
-121 -79 -57 -25 -122 -53 -144 -61 -40 -15 -197 -54 -202 -50 -1 2 42 25 95
51 53 27 113 59 132 71 34 22 188 73 223 74 9 1 17 -2 17 -6z"/>
<path d="M6601 12523 c-6 -54 -14 -118 -16 -142 -7 -61 -20 -640 -19 -856 0
-178 13 -559 19 -553 10 10 15 215 20 798 3 360 8 699 10 753 3 53 3 97 1 97
-2 0 -9 -44 -15 -97z"/>
<path d="M7925 12526 c129 -117 350 -175 472 -124 27 12 23 13 -56 14 -113 1
-191 23 -331 92 -63 31 -119 58 -125 60 -5 2 13 -17 40 -42z"/>
<path d="M19197 12175 c326 -391 431 -503 849 -907 647 -625 852 -863 1638
-1908 319 -424 559 -735 615 -800 27 -30 0 10 -289 430 -893 1299 -1220 1693
-2015 2427 -354 327 -447 420 -728 723 -140 151 -269 289 -287 305 -18 17 80
-105 217 -270z"/>
<path d="M7854 12187 c78 -68 210 -106 451 -131 83 -9 173 -21 200 -28 28 -6
218 -71 423 -144 397 -142 498 -173 764 -228 229 -48 339 -77 562 -147 303
-95 420 -123 594 -142 17 -2 32 0 32 3 0 4 -26 10 -58 13 -88 9 -263 58 -512
141 -263 89 -335 109 -610 171 -297 66 -354 83 -746 220 -195 69 -387 131
-427 139 -39 8 -137 19 -217 26 -244 18 -354 45 -453 111 l-32 21 29 -25z"/>
<path d="M13812 11758 c-87 -224 -140 -430 -147 -578 l-5 -95 23 95 c13 52 53
205 89 340 76 281 88 333 84 338 -2 2 -22 -43 -44 -100z"/>
<path d="M21110 11150 c104 -98 293 -256 495 -414 94 -73 260 -203 369 -290
228 -180 370 -277 681 -466 335 -202 492 -307 675 -450 l55 -43 -55 57 c-148
156 -323 289 -720 551 -289 190 -400 269 -660 470 -80 62 -268 198 -419 304
-150 106 -317 225 -370 265 -129 97 -140 101 -51 16z"/>
<path d="M17991 10985 c-1 -11 -5 -69 -11 -130 -5 -60 -14 -173 -20 -250 -6
-77 -24 -237 -40 -355 -16 -118 -40 -355 -55 -527 -14 -172 -29 -323 -34 -336
-16 -43 -50 -268 -66 -442 -20 -215 -28 -277 -71 -510 -147 -795 -390 -1503
-767 -2235 -96 -187 -147 -265 -251 -390 -44 -52 -118 -140 -164 -195 -98
-116 -166 -215 -211 -302 -44 -88 -39 -89 15 -3 61 100 128 182 293 358 236
251 256 279 398 542 293 545 480 1018 618 1570 119 475 169 813 190 1302 3 76
13 161 21 190 42 151 65 247 79 327 19 108 91 685 101 801 9 110 14 119 61
114 175 -21 340 -111 496 -273 98 -101 132 -151 207 -301 152 -303 254 -389
631 -533 88 -34 151 -68 274 -149 200 -131 365 -228 770 -453 423 -235 674
-380 886 -513 250 -156 358 -220 494 -292 316 -166 465 -256 644 -388 20 -14
5 3 -33 38 -130 122 -258 211 -603 418 -111 67 -287 178 -390 245 -326 214
-652 399 -1078 614 -485 244 -746 384 -738 396 4 6 0 8 -10 4 -10 -4 -16 -2
-14 5 1 6 -77 52 -173 102 -242 125 -310 168 -385 237 -75 70 -120 139 -205
310 -34 68 -81 151 -104 184 -51 70 -158 178 -236 236 -125 93 -300 159 -425
159 l-62 0 -7 183 c-6 156 -21 304 -25 242z"/>
<path d="M6670 10564 c0 -15 96 -162 179 -274 105 -141 276 -313 402 -402 291
-207 896 -441 1344 -518 66 -12 183 -24 260 -27 240 -10 379 20 603 131 62 31
115 56 119 56 21 0 413 242 413 255 0 3 -28 -11 -62 -31 -192 -110 -596 -286
-734 -321 -106 -26 -370 -24 -537 6 -498 87 -1157 339 -1437 549 -181 135
-359 317 -494 506 -31 43 -56 75 -56 70z"/>
<path d="M5008 9523 c-14 -16 -119 -140 -233 -278 -246 -295 -367 -433 -536
-610 -68 -71 -115 -123 -104 -114 280 220 550 523 859 962 51 72 55 84 14 40z"/>
<path d="M18170 8453 c-1 -82 -3 -184 -5 -228 -2 -44 -9 -208 -15 -365 -10
-257 -53 -987 -65 -1100 -3 -25 -12 -121 -20 -215 -75 -833 -193 -1670 -346
-2459 -27 -142 -48 -260 -46 -262 6 -7 116 499 171 794 139 734 241 1552 291
2317 8 127 17 275 21 330 17 267 33 1335 19 1335 -3 0 -5 -66 -5 -147z"/>
<path d="M18694 8075 c30 -78 342 -1024 370 -1120 19 -66 68 -235 109 -375
280 -953 487 -1978 577 -2855 18 -174 19 -180 14 -70 -3 66 -7 140 -9 165 -2
25 -7 83 -10 129 -13 178 -86 708 -135 981 -61 337 -159 783 -236 1075 -31
116 -69 258 -84 316 -53 196 -199 666 -309 986 -104 304 -276 772 -288 783 -4
3 -3 -4 1 -15z"/>
<path d="M22611 7539 c79 -113 286 -296 464 -412 104 -67 303 -172 312 -164
14 14 -576 466 -771 591 l-29 19 24 -34z"/>
<path d="M7254 6003 c2 -10 19 -72 36 -138 138 -531 324 -1029 523 -1400 61
-114 196 -335 204 -335 3 0 -12 30 -33 68 -21 37 -73 138 -116 224 -190 382
-308 686 -553 1426 -31 94 -59 172 -62 172 -2 0 -2 -8 1 -17z"/>
<path d="M16015 4963 c-41 -112 -149 -281 -264 -413 -31 -36 -119 -130 -195
-210 -76 -80 -230 -249 -341 -376 -274 -311 -347 -387 -505 -524 -496 -429
-1054 -736 -1734 -956 -111 -36 -347 -115 -526 -175 -356 -119 -484 -152 -665
-170 -152 -15 -436 -7 -695 20 -107 11 -262 25 -345 30 -538 38 -781 96 -1298
307 -394 162 -562 254 -700 383 -39 36 -88 93 -109 125 -21 33 -38 55 -38 49
0 -24 88 -143 148 -200 123 -118 291 -219 587 -354 514 -233 818 -320 1265
-363 91 -9 305 -30 475 -47 527 -53 779 -43 1078 41 111 31 951 309 1085 359
443 164 930 433 1272 701 279 218 452 394 783 794 60 72 179 208 264 303 223
247 309 358 391 503 34 62 96 210 89 216 -2 3 -12 -17 -22 -43z"/>
<path d="M9166 3241 c219 -212 597 -416 881 -475 118 -25 296 -34 498 -25 105
4 214 8 244 8 30 1 52 3 50 5 -5 5 -161 23 -264 31 -288 21 -362 29 -455 46
-57 11 -147 35 -200 54 -253 88 -605 272 -777 406 -35 27 -66 49 -70 49 -5 -1
37 -45 93 -99z"/>
</g>
</svg>
