<svg id="Layer_1" data-name="Layer 1" xmlns="http://www.w3.org/2000/svg" viewBox="0 0 359.19 500.98"><defs><style>.cls-1{fill:#f9efe8;}.cls-2{fill:#fff;}.cls-3{fill:#e6d1c3;}.cls-4{fill:#f2dcd1;}.cls-5{fill:#efcdb7;}.cls-6{fill:#ccbbb0;opacity:0.5;}.cls-7{fill:#a8dde8;}.cls-8{fill:#010101;}.cls-9{fill:#5a4f47;}</style></defs><path id="Skin_Tone" data-name="Skin Tone" class="cls-1" d="M179.05,370.13c-10,33-20,152.44-8.16,173.9s22.91,32.65,41.54,52.42,54.7,57.16,93.14,55.46,47.68,11.43,75.35-22.45,54.14-55.41,56.4-105.66.8-66.54,3.12-74.11c10.55-34.33,10.33-88.94,11.18-111.1.87-22.54,2.61-42.78-2-48.13C404.8,238.82,354.9,280.82,326.1,274s-59.46-28.15-76.38-27.7C205.16,247.53,184.41,355.71,179.05,370.13Z" transform="translate(-133.31 -154.69)"/><path class="cls-2" d="M204.14,365.68" transform="translate(-133.31 -154.69)"/><path class="cls-3" d="M321.83,459.53" transform="translate(-133.31 -154.69)"/><path id="Face_Shadow" data-name="Face Shadow" class="cls-4" d="M366.89,560.72c-.46-.17-20.08,3.49-52.64,1.13-7-.51-33.72-4.52-40.43-5.11,0,0,0-13.15,9-14.61,18.57-3,45.58,6.69,45.58,6.69.46-.15,1-.2.93-8,0-5.44,2.33-22-3.32-22-25.93,0-39.48-16.58-26-28.58,8.36-7.45,26-3.79,25.33-16.5-1.38-25.51,4.6-68.48,4-74.34C326.52,370,233.13,369.89,225.78,364c-32.48-26.21,44-33,44-33-5.16-32.21,31.59-46.57,67.88-51.07a18.19,18.19,0,0,1-8-2.06C304,262.34,268.77,233,243.56,242.32s-43.93,20-48.13,53c-4,31.78-15.93,57.28-10.05,67.47-2.7-1.4-5-1.54-6.85,0-4.35,3.72-6.6,6.22-7.74,9.46a9,9,0,0,0-2.25-1.56c-4-1.7-21.37-16-29.8,5.35-7.05,17.89-2.88,32.91,4,51.61s2.49,40.42,15.5,44.09c6.11,1.72,9.28-.6,11-3.7,1.79,13.2,3.67,25.27,3.42,32.75-1.1,32,8.93,45.44,24.74,65.17,6.95,8.67,27.23,20.22,39.15,35,29.91,39,71.28,45.36,89.93,44.42,39.46-2,52.06-15.26,53.51-25.6C383.94,591.87,369.28,561.85,366.89,560.72Z" transform="translate(-133.31 -154.69)"/><path id="Inner_Ear" data-name="Inner Ear" class="cls-5" d="M152.82,381.58c-10.46,2.59-16.34-.78-14.07,12.42s5.85,24.26,11.89,28.07-5.55-8.59,3-15,14.33-7.75,9.88-16.86S152.82,381.58,152.82,381.58Z" transform="translate(-133.31 -154.69)"/><g id="Stuble"><path class="cls-6" d="M334.32,539.37c11.42-3.31,24.43-3.7,27.46-3.22s.47-5.37-.8-9.22c-.64-1.92-3.24-2.29-8.1-3.64s-13.83-3.67-16.8-1.94C334.39,522.34,331.65,540.14,334.32,539.37Z" transform="translate(-133.31 -154.69)"/><path class="cls-6" d="M366.4,605c-.28-11.67-21.9-27.22-33.84-32.23s-34.91,3.44-44.69,10.09-22.17,19.13-18.79,31a67.86,67.86,0,0,0,38.79,25C333.5,644.53,352,635,362,630.15S366.67,616.63,366.4,605Z" transform="translate(-133.31 -154.69)"/><path class="cls-6" d="M290.05,534.64c2.67-.19,8.64.75,17.25,2.13,3.81.62,11.9,1.46,16.53,2.68,3.31.87,2.7-8.82,2.55-12.43s0-6.89-6.4-6.51c-4.9.29-23.49-2.22-26.54.89S285.28,535,290.05,534.64Z" transform="translate(-133.31 -154.69)"/></g><g id="Main_Outline" data-name="Main Outline"><path class="cls-2" d="M439.62,393.51c-13.87-9.1-26.72-12.84-42.2-14.61s-39.87,0-39.87,0c-5.27,23-6.5,23.49-6.12,31.05s-3.46,30.66,13.8,42.2C390.44,469,436.31,457,436.31,457s14.73-38.19,14.5-47.29S453.48,402.62,439.62,393.51Z" transform="translate(-133.31 -154.69)"/><path class="cls-2" d="M299.72,364.59c-19.36-1.77-52.49-7.52-70.59-7.06s-17.66-9.58-26.19,6.15S195.13,397,195.13,397c9,25.69,12.28,47.7,25.4,50s78,11.47,84.5,2.78,19.35-11.64,20-26.7,8.86-29.48,1.39-38.78S319.08,366.36,299.72,364.59Z" transform="translate(-133.31 -154.69)"/><g id="Glasses_Reflection" data-name="Glasses Reflection"><path class="cls-7" d="M421.46,394.44l-56.82,53.4c1.35,1.05,37.3,16.84,62.46,6.55,12-4.92,25-41.11,18.07-50.28C439.62,396.73,424,395,421.46,394.44Z" transform="translate(-133.31 -154.69)"/><path class="cls-7" d="M410.13,392.6c-18.93-2.89-39-3.12-45.73,3.65-7,7-9.87,25.36-5,41.2C371.91,424.49,394.37,402.33,410.13,392.6Z" transform="translate(-133.31 -154.69)"/><path class="cls-7" d="M312.76,377.74c-4.18-2.71-16.39-5-24.66-5L220.94,435c3.56,7.4,37.18,17.57,81.93,8.54C321.66,439.77,326.78,386.85,312.76,377.74Z" transform="translate(-133.31 -154.69)"/><path class="cls-7" d="M271.81,370.11c-25.19-3.49-53.47-4.6-60.07,2.05-8.1,8.15-6.79,33.25,2.07,50.34C226.24,409.49,252.66,382.8,271.81,370.11Z" transform="translate(-133.31 -154.69)"/></g><path class="cls-8" d="M165.87,412.27c-.56-13.89-3.52-36.64-16.91-34.37-10.12,1.72-11.11,10.64-11,16.54C138.36,389.8,141,379,152,382c5.83,1.6,7.61,4.76,9.57,14.45-3.93-2.4-14.37,5.62-13,13.53.77,4.43,3.36,13.47,11.34,25,0,0-12.39-23.71-7.09-27.49,7-5,12,6.09,12,6.1.47,3.63.79,6.8,1,8.94,0,0,.17-3.68,0-8.92A2.08,2.08,0,0,0,165.87,412.27Z" transform="translate(-133.31 -154.69)"/><path class="cls-8" d="M138,396.4c0-.6-.06-1.26-.07-2C137.85,395.84,137.93,396.69,138,396.4Z" transform="translate(-133.31 -154.69)"/><path class="cls-8" d="M492.22,210.45l.28,0Z" transform="translate(-133.31 -154.69)"/><path class="cls-8" d="M355.34,504c2.26-5.27-2-5.62-7.17-1.3s-4.71,4.5-3.13,6.56S354.47,506.07,355.34,504Z" transform="translate(-133.31 -154.69)"/><path class="cls-8" d="M317.52,508.5c8.53,1,8.17.13,7.75-5s-12.61-8.56-14.9-6.86C304.43,501,309,507.51,317.52,508.5Z" transform="translate(-133.31 -154.69)"/><path class="cls-8" d="M334.06,556.87c-8.84-1.41-21.66-.67-28.7-.12-2.07.16,2.83.67,4.75,2.27s28,1.68,33.69,0S342.91,558.29,334.06,556.87Z" transform="translate(-133.31 -154.69)"/><path class="cls-8" d="M370.12,545.79c-.45-2.09-.11-5.93-2.45-5.51-4.07.71-3.93.3-9,.26-6.79-.89-15.66.9-18.69,1.19-4.83.46-11.42,3.13-11.42,3.13s-17.32-7.79-43.85-7.22c-2.42.06-2.86-3-2.86-3C271,542,273.2,554,271.92,557.89c0,0,5.81-9.86,12.56-15.77.67-.58,6.66.29,9.22,0a78,78,0,0,1,16.9.63c13.44,2,16.65,6.87,16.65,6.87,13.16-6.4,27.95-6,35.45-5.27,2.13,2.1,4.55,8.27,5.81,9.82a4.85,4.85,0,0,1,.33-2.73,5.1,5.1,0,0,0,.53.5s-.18-.24-.49-.62C369.48,549.43,370.4,547.11,370.12,545.79Z" transform="translate(-133.31 -154.69)"/><path class="cls-8" d="M455.88,176.77c-56.09-22.08-96.93-10-96.93-10,.45-6.4,27.65-10.84,26.7-10.94-63.27-6.64-71.19,18.51-71.19,18.51-1.27-8,8.87-15.32,8.87-15.32-90.85,31-108.6,43.88-120.78,68.62a89.48,89.48,0,0,0-9.17,33.22C183.31,254,172,255,166,256.25c0,0,9.83-.92,16.43,3.43,2.08,1.37,4.65,3.36,7.36,5.59-17.56-1.24-25.49,11.19-28.4,17.43,0,0,4.59-7.36,15.51-8.76,1.57-.2,3.31-.42,5.05-.57-24.5,22.43-28.21,69.78-25.63,87-3.78-.57-7.45.93-11.13,3-8.35,4.79-19.24,32.12-5,62.11,4.17,8.76,6.87,34.86,11.21,41.83,2.92,4.69,9.07,6.23,13,3.92-4.17,77.23,2.39,98.56,47.66,133,67.73,51.55,84.25,51,121.11,51.41,37.6.42,56.8-33.32,91.16-82.86,19.85-28.61,13.85-80.4,17.76-119.38A132.27,132.27,0,0,0,457,420.47a9.17,9.17,0,0,0,3.91-1c1.79-1.4,6.14-17,6.46-19.48.41-3.38-10.6-7.59-16.65-9.87.55-7,.77-16.24.9-20.86.85-29.82,32.32-59.24,25.47-112-6.1-47,12.61-47,15.15-46.79C407.33,201.56,455.88,176.77,455.88,176.77ZM219.34,287.21C239,261,277.41,252.62,328.42,277.72c28.32,13.93,43.78,3.6,70.84,5,39.67,2,45.68,35.7,43.21,55.64-.8,6.54-.37,15.64-.7,24.66-6.32-14.16-21.86-24.24-34.55-25.86-39.3-5-37.36,18.42-37.36,18.42,41.86-7.38,70.24,9.82,67.26,28,0,.05,0,.09,0,.13-28.09-10.86-69.52-10.05-78.66-8.16a6.55,6.55,0,0,0-1.23.4c-7.31-1.46-20.82-3.88-29.63-4.38a9.29,9.29,0,0,0-3.26-2.51c-10.79-4.87-41.09-16-90.43-17.76,11.05-9.78,40.13-24,92.83-9.31,0,0,2.67-11.31-9.07-19.27,4,6.26,3.26,10,3.26,10-1.53-3.1-6.58-10.17-18.2-13.31-12.35-1.49-38.18-2.4-46.16-.89-25,4.73-39.46,22-43.36,32.6q-8.52.16-17.66.72C202.93,336.73,205.16,306.12,219.34,287.21Zm88.78,85.34c14.23,4.22,15.19,14.76,15.61,22.18.88,15.16-4.17,36.77-11.77,45.79-11.32,13.45-65.09,9.46-85.23,2.86s-36.62-62.79-17.51-76.08C217.1,361.82,265.89,360,308.12,372.55Zm119.06,186c-11.69,27.8-27.77,38.7-47,68.06C357,662.22,271.64,651.79,238.28,608.58,213,575.77,187.19,576,175,546.26c-5.52-13.45-9-59.53-5.6-88.85-2.57-6.61-.78-14.4-2.87-18.47q-.53,7.57-1,14.57c-.4,0-.58,2.95-1.9,7.21-3.2,10.36-10,7-12.64,1.94-4.42-8.46-1.31-21.86-9-37.55-12.16-24.76-6.45-53.36,4.33-59.61,4.57-2.65,9.16-1.51,13,1.69,7.43,7,8.83,30.95,10.43,42.32.89,6.39,2.67,23.35,2.67,23.35,3.27-1.5,6.26-9.83,4.68-30.75-.53-7,.83-17.25,4.38-26.91a46.92,46.92,0,0,0-.54,7.33c.29,7.85,5.83,13,11,19.43s7.65,30.47,21.25,45.27,87.76,13,100.47,3.51c9.08-6.75,19.67-41.44,18.54-63.63a46.86,46.86,0,0,1,17.06,3.41c-4.31,19.78-1.61,52.94,3.6,61.08,7.35,11.49,65.62,23.73,79.49,13.43a25.24,25.24,0,0,0,3.26-3C437.84,481.63,434.87,540.29,427.18,558.59ZM448.5,417a18.91,18.91,0,0,1-.91,5.66c-2.91,9.28-8.46,28.14-15.75,32.89-14.58,9.51-70,4-75.41-15-4.54-15.86-2.48-47.53,8.88-51.22,18.74-6.09,59.65-.06,77.51,9C448.43,401.18,449.6,408.53,448.5,417Z" transform="translate(-133.31 -154.69)"/><path id="Hair_-_Brown_Streak" data-name="Hair - Brown Streak" class="cls-9" d="M215.75,277.23c0-64.86,75.37-91,83.43-91.64,0,0-42.6,28.81-31.06,32.08,4.36,1.23,64.49-32.08,124.9-28,15.08,1-37.23,6.46-66.15,54.53-10.11,16.83-3.07,11.47-16.95,6.29C249.74,228.05,215.75,277.23,215.75,277.23Z" transform="translate(-133.31 -154.69)"/></g></svg>